# xmcd CD database file
#
# Track frame offsets:
#	150
#	14547
#	29015
#	40180
#	55370
#	67702
#	88107
#	108972
#	123462
#	139872
#	157182
#
# Disc length: 2281 seconds
#
# Revision: 3
# Processed by: cddbd v1.5.2PL0 Copyright (c) Steve Scherf et al.
# Submitted via: jetAudio 5
#
DISCID=9708e70b
DTITLE=arbe dinberys - ss
DYEAR=1974
DGENRE=ss
TTITLE0=Track01
TTITLE1=Track02
TTITLE2=Track03
TTITLE3=Track04
TTITLE4=Track05
TTITLE5=Track06
TTITLE6=Track07
TTITLE7=Track08
TTITLE8=Track09
TTITLE9=Track10
TTITLE10=Track11
EXTD=
EXTT0=
EXTT1=
EXTT2=
EXTT3=
EXTT4=
EXTT5=
EXTT6=
EXTT7=
EXTT8=
EXTT9=
EXTT10=
PLAYORDER=
